<?xml version="1.0" standalone="no"?>
<!DOCTYPE svg PUBLIC "-//W3C//DTD SVG 1.1//EN" "http://www.w3.org/Graphics/SVG/1.1/DTD/svg11.dtd">
<svg xmlns="http://www.w3.org/2000/svg">
<metadata>(C) IGN - 2015</metadata>
<defs>
<font id="fontign" horiz-adv-x="1000" >
<font-face font-family="fontign" font-weight="400" font-stretch="normal" units-per-em="1000" ascent="850" descent="-150" />
<missing-glyph horiz-adv-x="1000" />
<glyph glyph-name="form-blazon" unicode="&#xe800;" d="m114 850c-17 0-30-13-30-30l0-772c0-17 13-30 30-30l232 0 122-154c14-19 50-19 64 0l122 154 232 0c17 0 30 13 30 30l0 772c0 17-13 30-30 30z" horiz-adv-x="1000" />
<glyph glyph-name="form-bookmark" unicode="&#xe801;" d="m118 850c-12 0-22-10-22-21l0-958c0-17 20-27 34-17 123 86 247 172 370 258l370-258c14-10 34 0 34 17l0 958c0 11-10 21-22 21-255 0-509 0-764 0z" horiz-adv-x="1000" />
<glyph glyph-name="form-bouclier" unicode="&#xe802;" d="m81 850c-18 0-33-13-33-28l0-719c0-10 2-20 5-24l414-223c15-8 52-8 66 0l414 223c6 9 4 14 5 24l0 719c0 15-15 28-33 28z" horiz-adv-x="1000" />
<glyph glyph-name="form-bulle" unicode="&#xe803;" d="m500 850c-225 0-409-183-409-409 0-190 132-350 309-395l78-179c10-23 35-23 45 0l78 179c176 45 308 205 308 395 0 226-184 409-409 409z" horiz-adv-x="1000" />
<glyph glyph-name="form-diamant" unicode="&#xe804;" d="m312 850l-312-173 0-295 500-532 500 532 0 295-312 173c-125 0-251 0-376 0z" horiz-adv-x="1000" />
<glyph glyph-name="form-carre" unicode="&#xe805;" d="m31 850c-17 0-31-14-31-31l0-938c0-17 14-31 31-31l938 0c17 0 31 14 31 31l0 938c0 17-14 31-31 31z" horiz-adv-x="1000" />
<glyph glyph-name="form-engrenage" unicode="&#xe806;" d="m1000 421l0-144c0-6-2-11-5-15-4-5-8-8-13-9l-121-18c-8-24-16-43-25-59 15-22 38-52 70-90 4-5 6-11 6-17 0-5-2-10-6-15-11-16-33-39-64-70-31-31-52-46-61-46-6 0-11 2-17 6l-90 70c-19-10-39-18-59-25-7-59-14-99-19-121-3-12-11-18-24-18l-144 0c-6 0-12 2-16 5-5 4-7 9-8 14l-18 120c-21 7-41 15-58 24l-92-69c-5-4-10-6-17-6-6 0-11 2-16 7-55 50-90 86-107 109-3 5-5 10-5 15 0 6 2 11 5 15 7 10 18 24 34 44 15 19 27 35 35 46-12 21-21 43-27 64l-119 18c-6 1-10 3-14 8-3 4-5 9-5 15l0 145c0 5 2 10 5 15 4 4 8 7 13 8l121 18c6 20 14 40 25 60-17 25-40 55-70 90-4 5-6 10-6 16 0 4 2 9 6 15 11 15 32 39 64 70 31 31 52 46 61 46 6 0 12-2 17-6l90-70c19 10 39 18 59 25 7 59 14 99 19 121 3 12 11 18 24 18l144 0c6 0 12-2 16-5 5-4 7-9 8-14l18-120c21-7 41-15 59-24l92 69c4 4 9 6 16 6 5 0 11-2 16-6 56-52 92-89 107-111 3-3 5-8 5-14 0-6-2-11-5-15-7-9-18-24-34-44-15-19-27-35-35-46 12-21 21-42 27-63l119-19c6 0 10-3 14-8 3-4 5-9 5-15z" horiz-adv-x="1000" />
<glyph glyph-name="form-hexagone" unicode="&#xe807;" d="m1000 100l-500-250-500 250 0 500 500 250 500-250z" horiz-adv-x="1000" />
<glyph glyph-name="form-marker" unicode="&#xe808;" d="m500 850c-225 0-410-181-409-409 2-227 206-388 365-574 20-23 68-23 88 0 137 167 363 359 365 574 1 215-184 409-409 409z" horiz-adv-x="1000" />
<glyph glyph-name="form-poi" unicode="&#xe809;" d="m500 850c-179 0-326-146-326-326 0-33 5-65 18-102l285-557c10-20 36-20 46 0l285 557c13 37 18 69 18 102 0 180-147 326-326 326z" horiz-adv-x="1000" />
<glyph glyph-name="form-rond" unicode="&#xe80a;" d="m500 850c-276 0-500-224-500-500 0-276 224-500 500-500 276 0 500 224 500 500 0 276-224 500-500 500z" horiz-adv-x="1000" />
<glyph glyph-name="form-triangle" unicode="&#xe80b;" d="m31 850c-24 0-39-30-27-54l469-928c12-24 42-24 54 0l469 928c12 24-3 54-27 54z" horiz-adv-x="1000" />
<glyph glyph-name="form-virgule" unicode="&#xe80c;" d="m500 850c-220 0-399-179-399-399 0-219 179-398 399-398 147 16-5-129-40-175-9-11-1-28 13-28 329 99 427 373 426 601 0 220-179 399-399 399z" horiz-adv-x="1000" />
<glyph glyph-name="industrie-engrenage" unicode="&#xe80d;" d="m598 252c27 27 41 60 41 98 0 38-14 71-41 98-27 27-60 41-98 41-38 0-71-14-98-41-27-27-41-60-41-98 0-38 14-71 41-98 27-27 60-41 98-41 38 0 71 14 98 41z m319 157l0-120c0-5-2-9-5-13-3-4-6-6-10-7l-101-15c-7-19-14-36-21-49 13-18 32-43 58-75 4-5 5-9 5-14 0-4-1-9-4-12-10-14-28-33-54-59-26-26-43-38-51-38-4 0-9 1-14 5l-75 58c-16-8-32-15-49-20-6-50-12-83-16-102-3-10-9-15-20-15l-120 0c-5 0-10 2-13 5-4 3-6 7-7 12l-15 100c-18 5-34 12-49 20l-76-58c-4-4-8-5-14-5-5 0-9 2-13 6-46 41-76 71-90 91-2 3-4 8-4 12 0 5 2 9 5 13 5 7 14 19 27 36 13 16 23 29 30 38-10 18-18 36-23 54l-99 14c-5 1-8 3-11 7-3 4-5 8-5 13l0 120c0 5 2 9 5 13 3 4 6 6 10 7l101 15c5 17 12 33 21 50-14 21-34 46-58 75-4 4-5 9-5 13 0 4 1 8 5 12 9 13 27 33 53 59 26 26 43 38 51 38 5 0 10-1 14-5l75-58c16 8 33 15 50 21 5 49 11 82 15 101 3 10 9 15 20 15l120 0c5 0 10-2 14-5 3-3 5-7 6-12l15-99c18-6 34-13 49-20l77 58c3 3 7 4 13 4 5 0 9-1 13-5 47-43 77-74 90-92 2-3 4-7 4-12 0-4-2-9-5-13-5-7-14-19-27-36-13-16-23-29-30-38 10-18 17-36 23-53l99-15c5-1 8-3 11-7 3-4 5-8 5-13z" horiz-adv-x="1000" />
<glyph glyph-name="industrie-nucleaire" unicode="&#xe80e;" d="m674 781l-91-223c71-31 121-100 124-183l6-10 236-2c0 2 0 3 0 5 0 185-114 345-275 413z m-352-2c-158-69-270-227-271-409l238 0 4 6c4 84 54 153 127 183l3 5z m177-287c-69 0-125-56-125-125 0-70 56-126 125-126 69 0 125 56 125 126 0 69-56 125-125 125z m-117-294l-136-200c73-50 160-79 254-79 94 0 182 29 254 80l-139 196c-33-22-72-34-115-34-44 0-85 13-118 37z" horiz-adv-x="1000" />
<glyph glyph-name="loisir-chapiteau" unicode="&#xe80f;" d="m500 750l0-133 222 66-222 67z m0-133c-89-89-222-178-355-223 44-44 44-355 0-444l710 0c-44 89-44 400 0 444-133 45-266 134-355 223z m0-45c133-133 133-133 267-178l-134 0-133 178z m0 0l44-178-88 0 44 178z m0 0l-133-178-134 0c134 45 134 45 267 178z m-222-222l89 0 0-355-89 0 0 355z m178 0l88 0 0-355-88 0 0 355z m177 0l89 0 0-355-89 0 0 355z" horiz-adv-x="1000" />
<glyph glyph-name="loisir-jeux" unicode="&#xe810;" d="m311 717c-30 0-54-26-54-59 0-33 24-60 54-60 30 0 54 27 54 60 0 33-24 59-54 59z m-82-91c-6 0-13-2-18-7l-149-111c-22-16-17-51 9-61l109-41-31-53-88 36-20-51 80-32-18-30c-24-41 37-77 61-36l23 40 257-103-69-165c-3-7 2-15 10-15l139 0c7 0 12 8 9 15l-65 155 198-79-20-34c-24-41 37-77 61-36l26 43 197-78 20 50-189 76 30 50 120-45c30-12 58 18 45 47l-99 222c-6 14-19 22-34 21-8 0-15-3-21-8l-198-167c-38-30 10-86 46-54l162 136 45-101-69 25c-16 6-34 0-43-15l-51-85-357 143c22 4 35 27 27 47l-99 278c-5 15-20 25-36 23z m556-97c-30 0-53-27-53-60 0-33 23-60 53-60 30 0 54 27 54 60 0 33-24 60-54 60z m-524-125l36-103c1-3 3-6 5-9l-87 35z" horiz-adv-x="1000" />
<glyph glyph-name="loisir-musee" unicode="&#xe811;" d="m375 748c-24 0-66-27-66-27 0 0-46 8-67 0-27-9-54-27-67-53-23-48-23-111 0-159 13-26 40-44 67-53 21-7 67 0 67 0l-34-53 67 0 0-451 100 0 0 258 100 0 0-258 100 0 0 258 67 0c29 0 32-7 33-27l0-231 100 0 0 303c-7 40-24 50-70 53l-363 0 0 95 66 0-33 53c0 0 46-7 67 0 27 9 54 27 66 53 23 48 23 111 0 159-12 26-39 44-66 53-21 8-67 0-67 0 0 0-43 27-67 27z m-66-80c0 0 42-26 66-26 24 0 67 26 67 26 0 0 54-27 67-53 7-16 7-37 0-53-13-25-39-49-67-53-24-3-67 27-67 27 0 0-43-30-66-27-28 4-55 28-67 53-8 16-8 37 0 53 12 26 67 53 67 53z" horiz-adv-x="1000" />
<glyph glyph-name="loisir-nature" unicode="&#xe812;" d="m374 350c0 70 56 126 126 126 70 0 126-56 126-126 0-70-56-126-126-126-70 0-126 56-126 126z m263 385c-27-2-56-12-80-34-31-30-53-112-43-177 54-4 100-32 130-73 60 24 120 83 130 125 14 63-21 120-62 143-20 12-47 18-75 16z m-295-7c-20-1-39-7-54-16-40-23-76-80-61-143 9-41 66-99 125-124 30 45 79 75 135 80 7 63-14 140-44 168-24 23-53 33-80 35-7 1-14 1-21 0z m-158-250c-10 0-19-1-27-3-63-19-94-78-94-125 0-46 31-106 94-125 43-13 131 13 181 57-9 21-14 44-14 68 0 24 5 47 14 68-41 37-107 60-154 60z m632 0c-47 0-113-23-154-60 9-21 14-44 14-68 0-24-5-47-14-68 50-44 138-70 181-57 63 19 94 79 94 125 0 47-31 106-94 125-8 2-17 3-27 3z m-463-223c-59-25-117-83-126-123-15-64 21-121 61-144 40-23 107-26 155 19 30 28 51 105 44 169-56 4-105 34-134 79z m291-6c-30-41-76-69-130-73-10-65 12-147 43-177 48-44 115-42 155-18 41 23 76 80 62 143-10 42-70 101-130 125z" horiz-adv-x="1000" />
<glyph glyph-name="loisir-theatre" unicode="&#xe813;" d="m482 238c0 0-51-54-82-54-31 0-130 29-130 29 0 0 85-103 150-98 65 5 62 123 62 123z m-322 154c40-70 64-87 122-85 18 11 24 45 17 69-59-17-139 16-139 16z m494-84c59-8 138-154 138-154 0 0-93 60-138 71-45 11-123 0-123 0 0 0 65 90 123 83z m63 169l123-85c0 0-99-24-123 0-24 25 0 85 0 85z m-186 0l123 0c0 0-27-85-61-85-35 0-62 85-62 85z m-56 147c-34-148-26-305-5-399 11-41 39-86 39-86 0 0-11-91-65-98-276 22-287 275-345 436 0 0 179-33 247 1 68 34 129 146 129 146z m-5 104c0 0-77-136-154-174-76-39-278 6-278 6 42-245 76-589 432-588 46 26 64 34 73 125 36-69 80-115 174-125 207 70 231 410 245 588 0 0-159-27-245 0-87 27-247 168-247 168z m40-260c-9-80-24-104-76-124-21 4-39 32-42 58 60 6 118 66 118 66z" horiz-adv-x="1000" />
<glyph glyph-name="meteo-neige" unicode="&#xe814;" d="m469 836l0-112-82 51-30-51 112-72 0-61-61 30-21-51 62-31-102-51 0 72-52 0 0-62-51 31 0 133-61 0 0-102-113 61-30-61 102-51-82-41 31-51 123 51 51-21-51-30 30-41 51 30 0-102-51 31-30-51 51-21-51-31-123 62-31-51 82-41-102-51 30-62 113 51 0-92 61 0 0 123 51 31 0-51 52 0 0 61 102-51-72-21 31-51 61 21 0-52-112-71 30-51 82 51 0-123 62 0 0 123 82-51 41 51-123 71 0 52 61-21 21 51-52 21 93 51 0-61 51 0 0 51 51-31 0-123 61 0 0 92 113-51 30 62-102 51 82 41-31 51-122-62-52 31 52 21-31 51-51-31 0 102 61-30 21 41-52 30 62 31 112-61 31 51-82 41 102 51-30 61-103-51 0 92-61 0 0-133-61-31 0 62-51 0 0-72-93 51 52 31-21 51-61-30 0 61 112 72-30 51-82-51 0 112-62 0 31-348 123-61 0-154-123-51-123 51 0 154 123 61-31 348z" horiz-adv-x="1000" />
<glyph glyph-name="meteo-nuageux" unicode="&#xe815;" d="m190 557c-63-59-28-174 8-230 13 54 42 128 160 130-2 57 53 72 53 72-53 86-157 87-221 28z m-82-38l109 109-145 36z m0-144l0 144-108-72z m271 51c60-7 65-36 90-87-26 51-53 71-108 72-93-15-124-63-144-144l-109 108-36-144 44-8c-99-85-55-227 101-245 259-31 577 0 577 0 303 35 245 437 0 433 0 0 18-46-3-76 3 212-307 273-412 91z m-18 202l108-109 37 145z m-72 108l-72-108 144 0z" horiz-adv-x="1000" />
<glyph glyph-name="meteo-orage" unicode="&#xe816;" d="m463 811c-51-17-69-46-93-92 52-3 60-21 75-68-19 43-50 50-89 59-35 0-59-19-84-35-22-22-25-46-33-75 27 2 37-14 57-27-21 12-49 13-62 15-20-3-59-11-81-32-21-21-35-53-35-84 0-30 14-61 35-83 22-21 30-24 84-35 53-12 237 0 237 0l-178-119 119-60-119-297 297 297-119 60 119 119c0 0 80-5 119 0 23 2 45 6 66 14 21 10 43 22 59 39 16 17 30 37 36 59 12 44 13 94 0 137-6 21-21 38-36 54-17 17-37 32-59 41-21 9-66 12-66 12l0-59c0 0-3 45-12 65-20 50-58 78-101 95-42 17-92 12-136 0z" horiz-adv-x="1000" />
<glyph glyph-name="meteo-pluie" unicode="&#xe817;" d="m352 667c57-3 72-23 84-77-52 121-254 72-235-67-229-37-177-259 0-269 83-4 67 0 67 0l134 0-67-67 67 0 68 67 67 0 134 0-67-67 67 0 67 67c397 5 299 411 0 403 0 0 12-43 0-67-46 249-326 233-386 77z m-151-480l-67-67 67 0 67 67-67 0z m269 0l-68-67 68 0 67 67-67 0z m-202-67l-67-67 67 0 67 67z m269 0l-67-67 67 0 67 67z m-470-67l-67-67 67 0 67 67z m268 0l-67-67 67 0 67 67z m-201-67l-67-67 67 0 67 67-67 0z m268 0l-67-67 67 0 68 67z" horiz-adv-x="1000" />
<glyph glyph-name="meteo-soleil" unicode="&#xe818;" d="m500 764l-104-155 208 0z m104-155l155-155 52 207z m155-155l0-208 155 104z m0-208l-155-155 207-52z m-155-155l-208 0 104-155z m-208 0l-155 155-52-207z m-155 155l0 208-155-104z m0 208l155 155-207 52z m259 102c-114 0-206-92-206-206 0-114 92-206 206-206 114 0 207 92 207 206-1 114-93 206-207 206z" horiz-adv-x="1000" />
<glyph glyph-name="religion-abbaye" unicode="&#xe819;" d="m262 558l89-59 60 59 59-59-59-60-60 60-89 59 0-238-119-119 0-238 59 0 0 179 60 59 59-59 0-179 60 0 0 298 119 119 119-119 0-298 60 0 0 179 59 59 60-59 0-179-715 0 0-59 834 0 0 59-60 0 0 238-119 119 0 238-89-59-60-60-59 60 59 59 60-59 89 59-238 238 0-119 60-59-60-60-59 60 59 59 0 119-238-238z" horiz-adv-x="1000" />
<glyph glyph-name="religion-croix_chapelle" unicode="&#xe81a;" d="m328 281l138 0 0 275-138 0 0 69 138 0 0 137 68 0 0-137 138 0 0-69-138 0 0-275 138 0 0-343-344 0z" horiz-adv-x="1000" />
<glyph glyph-name="religion-croix_eglise" unicode="&#xe81b;" d="m466 769l0-138-139 0 0-69 139 0 0-223c-99-17-171-96-171-203 0-106 92-205 205-205 113 0 205 99 205 205 0 107-72 186-170 203l0 223 138 0 0 69-138 0 0 138z" horiz-adv-x="1000" />
<glyph glyph-name="religion-eglise" unicode="&#xe81c;" d="m319 765l0-52-52 0 0-52 52 0 0-103-130-156 0-467 233 0 0 52-155 0 0 207 77 52 0 104-51 52 51 52 52-52-52-52 0-104 78-52 0-259 389 0 0 208-103 103-208 0 0 156-130 156 0 103 52 0 0 52-52 0 0 52-51 0z" horiz-adv-x="1000" />
<glyph glyph-name="religion-tombe" unicode="&#xe81d;" d="m500 730c-59 0-108-26-146-48-19-11-36-22-48-28-5-3-10-5-14-6-1-1-2-1-3-1l-46 0-3-49-42-541 0-4-73 0 0-83 750 0 0 83-73 0 0 4-42 541-3 49-44 0c-2 1-4 2-8 5-9 5-23 17-40 28-36 24-91 50-165 50z m0-73c58 0 95-19 124-38 14-10 26-19 39-28 0 0 1 0 2-1 2 0 7-1 13-4l10-6 39-506-454 0 38 506 11 5c12 6 19 6 17 5 17 9 34 18 52 28 36 21 73 39 109 39z m0-41c-19 0-55-15-89-34-17-10-35-20-52-29-6-3-5-2-9-3l-32-434 364 0-34 436c-2 1-4 1-7 3-15 10-28 20-41 29-26 18-51 32-100 32z m-107-130l42 0c10 0 18-1 23-3 5-2 9-5 12-9 2-5 4-10 4-16 0-7-2-14-7-19-4-4-11-7-19-9 4-2 8-5 10-8 3-3 7-8 12-16l12-19-24 0-15 21c-5 8-8 13-10 15-2 2-4 3-6 4-2 1-6 1-10 1l-4 0 0-41-20 0 0 99z m99 0l20 0 0-99-20 0 0 99z m39 0l33 0c12 0 20-1 24-2 5-1 10-4 14-9 4-5 6-12 6-20 0-6-1-11-4-15-2-4-5-8-8-10-4-2-7-4-11-5-4-1-11-1-20-1l-14 0 0-37-20 0 0 99z m-118-17l0-25 15 0c9 0 15 0 18 1 2 1 4 2 5 4 2 2 2 5 2 8 0 3-1 6-3 8-1 2-4 3-7 4-2 0-7 0-15 0l-15 0z m138 0l0-28 11 0c8 0 14 0 16 1 3 1 5 3 7 5 1 3 2 5 2 8 0 4-1 7-3 9-2 2-5 4-8 4-3 1-8 1-15 1l-10 0z" horiz-adv-x="1000" />
<glyph glyph-name="service-association" unicode="&#xe81e;" d="m208 670c-50 0-107-57-107-108 0-51 57-109 107-109 51 0 108 58 108 109 0 51-57 108-108 108z m584 0c-51 0-108-57-108-108 0-51 57-109 108-109 51 0 107 58 107 109 0 51-56 108-107 108z m-584-250c-36 0-77-32-94-54-16-22-13-54-13-54l0-282 4 0 211 0 0 216 74-68 54 59c0 0-101 100-142 129-40 30-57 54-94 54z m584 0c-36 0-54-24-94-54-40-29-141-129-141-129l53-59 74 68 0-216 215 0 0 4 0 278c0 0 3 32-13 54-17 22-58 54-94 54z" horiz-adv-x="1000" />
<glyph glyph-name="service-creche" unicode="&#xe81f;" d="m352 789c-37 0-72-26-72-64 0-26 18-47 41-57-25-31-41-69-41-110 0-75 51-137 122-168-17-9-33-21-47-35-6 6-12 12-19 17-23 14-51 22-82 22-31 0-60-8-82-22-22-14-39-37-39-64 0-27 17-49 39-63 22-14 51-22 82-22 10 0 21 1 30 3-2-14-4-28-4-43 0-23 4-45 10-66-12 4-24 6-36 6-65 0-121-46-121-106 0-61 56-106 121-106 57 0 107 35 119 85 36-27 79-44 127-44 48 0 92 17 128 44 11-50 61-85 118-85 65 0 121 45 121 106 0 60-56 106-121 106-12 0-24-2-36-6 6 21 10 43 10 66 0 15-2 29-4 43 10-2 20-3 30-3 31 0 60 8 82 22 22 14 39 36 39 63 0 27-17 50-39 64-22 14-51 22-82 22-31 0-59-8-81-22-8-5-14-11-20-17-14 14-30 26-47 35 71 31 122 93 122 168 0 41-15 79-41 110 24 10 41 31 41 57 0 38-35 64-72 64-34 0-65-22-71-54-24 8-50 13-77 13-27 0-53-5-77-13-5 32-37 54-71 54z m49-155c24 0 42-16 42-34 0-18-18-34-42-34-23 0-41 16-41 34 0 18 18 34 41 34z m198 0c23 0 41-16 41-34 0-18-18-34-41-34-24 0-42 16-42 34 0 18 18 34 42 34z m-99-87c36 0 63-24 63-51 0-27-27-51-63-51-36 0-63 24-63 51 0 27 27 51 63 51z m0-303c71 0 125-48 125-102 0-55-54-103-125-103-71 0-125 48-125 103 0 54 54 102 125 102z m-246-167c44 0 76-29 76-60 0-32-32-61-76-61-44 0-76 29-76 61 0 31 32 60 76 60z m492 0c44 0 76-29 76-60 0-32-32-61-76-61-44 0-76 29-76 61 0 31 32 60 76 60z" horiz-adv-x="1000" />
<glyph glyph-name="service-handicap" unicode="&#xe820;" d="m363 773c-53 0-96-43-96-96 0-53 43-96 96-96 53 0 96 43 96 96 0 53-43 96-96 96z m-1-226c-23 0-42-20-41-43l0-77 0-192c0-24 19-43 42-43l243 0 104-207c10-21 36-30 57-19l77 39c51 24 12 101-38 75l-39-19-97 193c-7 14-22 23-38 23l-227 0 0 108 189 0c56 0 56 84 0 84l-189 0 0 35c1 24-19 43-43 43z m-76-139c-90-38-154-127-154-231 0-138 113-250 250-250 112 0 206 73 238 174l-45 57-22 0c-9-87-81-154-171-154-96 0-173 77-173 173 0 60 31 113 77 144z" horiz-adv-x="1000" />
<glyph glyph-name="service-emploie" unicode="&#xe821;" d="m461 725c-207 0-375-168-375-375 0-207 168-375 375-375 78 0 151 24 211 65 176 7 226 122 228 151 1 12-10 72-74 48-3-1-5-3-8-4 6 19 10 38 13 57l21 0c27 1 67-4 61 89-7 118-65 204-181 228-68 71-164 116-271 116z m217-109c17 0 33-3 49-6 64-68 103-159 103-259 0-20-2-40-5-59l-310 5c-5-133 75-149 135-147 104 4 110 56 162 82-26-79-77-146-144-192-11-1-23-1-36 0-201 8-256 145-251 305 4 151 96 278 297 271z m-31-109c-33 0-59-9-79-27-20-18-32-44-37-78l215 0c0 31-9 57-27 76-19 19-43 29-72 29z" horiz-adv-x="1000" />
<glyph glyph-name="service-hopital" unicode="&#xe822;" d="m189-39l0 778 157 0 0-306 308 0 0 306 157 0 0-778-157 0 0 340-308 0 0-340-157 0z" horiz-adv-x="1000" />
<glyph glyph-name="service-i" unicode="&#xe823;" d="m499 748c-77 0-140-62-140-140 0-77 63-140 140-140 78 0 140 63 140 140 0 78-62 140-140 140z m-233-328l0-47 117-46 0-282-117-47 0-46 468 0 0 46-117 47 0 375z" horiz-adv-x="1000" />
<glyph glyph-name="service-police" unicode="&#xe824;" d="m419 793c64-255-106-280-106-433 0-95 59-162 124-210-50-18-83-57-83-118 0-61 56-125 125-125 69 0 125 68 125 125 0 58-25 89-66 111 75 81 150 140 150 229 0 229-96 305-269 421z" horiz-adv-x="1000" />
<glyph glyph-name="service-livre" unicode="&#xe825;" d="m391 808l-7-183-80 103-11-195-85 67-41-458 250-209c0 0 41-41 83-41 42 0 83 41 83 41l250 209-41 458-85-67-11 195-80-103-7 183-78-166c0 0-15-42-31-42-16 0-31 42-31 42l-78 166z m-59-169l51-65-8-224 94-208c0 0 15-42 31-42 16 0 31 42 31 42l94 208-8 224 51 65 24-409-153-204-1-1c0 0-6-9-14-18-9-9-20-16-24-16-4 0-15 7-24 16-8 9-14 18-14 18l0 1-154 204 24 409z" horiz-adv-x="1000" />
<glyph glyph-name="service-pompier" unicode="&#xe826;" d="m333 850l9-32c52-172 10-260-46-337-55-78-131-144-131-257 0-94 48-170 112-229 64-59 144-104 215-139l12-6 9 9c68 69 147 121 210 175 63 54 112 112 112 190 0 93-37 218-113 335-77 117-194 226-357 280l-32 11z m50-61c137-54 242-146 309-249 73-112 107-233 107-316 0-63-39-111-99-163-46-40-104-82-162-132 68 110 71 185 68 260-3 58-36 140-106 211 0-106-137-212-141-282-4-79 9-128 40-170-35 22-69 46-98 73-60 55-100 121-100 203 0 98 65 155 124 236 54 75 94 174 58 329z" horiz-adv-x="1000" />
<glyph glyph-name="service-recyclage" unicode="&#xe827;" d="m219 498l70-78-187-15 46-24-70-125 141-242 281 0 0 195-219 0 39 71 39-32-70 172-70 78 172-93 109 187 39-70-47-24 188-7 101 7-179-101 109-180-70 0 0 47-102-148 102-157 0 55 140 0 141 242-141 242-101-7 70 156-39-24-70 118-282 0-140-243z" horiz-adv-x="1000" />
<glyph glyph-name="service-toilettes" unicode="&#xe828;" d="m229 757c-42 0-76-34-76-75 0-42 34-76 76-76 42 0 76 34 76 76 0 41-34 75-76 75z m500 0c-42 0-76-34-76-75 0-42 34-76 76-76 42 0 76 34 76 76 0 41-34 75-76 75z m-271-35l0-750 42 0 0 750z m-354-138c-16 0-29-13-29-29l0-250c0-39 58-39 58 0l0 221 25 0 0-221 0-333c0-39 59-39 59 0l0 304 25 0 0-304c0-39 58-39 58 0l0 331c0 1 0 2 0 2l0 221 25 0 0-221c0-39 58-39 58 0l0 250c0 16-13 29-29 29z m542 0c-13 0-24-8-28-19l-83-250c-13-37 43-56 55-19l56 167 0-19c0-11 4-22 10-31l-80-266c-5-19 9-38 28-38l54 0 0-137c0-39 59-39 59 0l0 137 25 0 0-137c0-39 58-39 58 0l0 137 54 0c20 0 34 19 28 38l-80 266c6 9 10 20 10 31l0 19 56-167c12-37 68-18 55 19l-83 250c-4 11-15 19-28 19z" horiz-adv-x="1000" />
<glyph glyph-name="service-sante" unicode="&#xe829;" d="m366 789l0-305-305 0 0-268 305 0 0-305 268 0 0 305 305 0 0 268-305 0 0 305-268 0z" horiz-adv-x="1000" />
<glyph glyph-name="service-wifi" unicode="&#xe82a;" d="m835 374l0-144 48 0 0 144z m-383 0l48 0 0-144-48 0z m383 96c-11-11-11-37 0-48 12-11 37-11 48 0 12 11 12 37 0 48-11 11-36 11-48 0z m-239 0l0-240 48 0 0 96 96 0 0 48-96 0 0 48 144 0 0 48z m-144 0c11 11 37 11 48 0 11-11 11-37 0-48-11-11-37-11-48 0-11 11-11 37 0 48z m-335 0l48 0 48-96 47 96 48-96 48 96 48 0-96-240-48 96-47-96z m527 48l287 0 0-336-96 0-239 0-144 0c0 0 96 13 96 48l0 240c0 36 96 48 96 48z m-575 48c-23 0-48-26-48-48l0-336c0-22 27-39 48-48l862 0c21 9 48 26 48 48l0 336c0 22-25 48-48 48z" horiz-adv-x="1000" />
<glyph glyph-name="sport-cheval" unicode="&#xe82b;" d="m440 458c-16-10-31-18-34-18-4 0-20 26-16 28 1 1 15 9 30 19l28 18 11-15c11-15 11-15-19-32z m-43-484c18-1 37 0 55 1-5 19-13 39-32 87-14 37-24 76-27 102-2 23-8 50-13 60l-5 18c0 0 62-2 94-1 31 1 94 6 94 6l25-43c11-20 29-44 37-55 11-16 15-22 5-39-36-59-77-131-77-134 0-2 15-2 33-1l33 2 39 69c0 0 39 58 39 70 1 13-15 55-15 55l-15 56 26-24c14-12 41-30 59-38 19-9 36-19 38-22 2-4 4-43 3-88l-1-82 29 0 28 0 0 92c0 0 3 81 0 92-2 12-35 60-35 60-20 33-38 60-44 68 7 19 10 32 5 51-5 17-4 22 3 25 20 8 41 3 56-12 14-14 15-20 15-70l0-54 37 2 36 2-1 45c-1 57-16 104-41 125-15 13-26 16-55 16-19 0-45-3-56-6-18-5-23-3-40 13-28 26-76 31-131 15-13-4-14-3-10 12 4 14-4 30-39 88-45 74-55 86-73 86-14 0-14 7-2 23 5 6 9 21 9 32 1 45-58 66-87 31-4-5-16-11-27-13-21-5-24-14-4-17 5-1 11-2 17-3-1-4 1-12 3-19 3-10 13-24 23-30 16-9 17-12 11-29-5-13-6-24-1-36 6-17 4-19-25-35-17-10-31-17-32-16-1 1-8 12-15 25-17 27-62 70-89 84-10 5-31 11-46 10-27-3-24-5-40 18-17 26-24 21-27-14-1-21 0-28-18-48-10-10-18-27-19-38-1-11-9-30-17-42-15-22-15-23-5-41 6-10 9-16 14-17 10-2 18 11 47 27 30 15 37 7 57 24 2-2 7-20 19-42 18-33 20-42 17-68-2-19 0-40 7-60 12-35 12-34 3-34-3 0-33-16-66-36l-59-36 0-97 0-97 27 15 27 15 3 63 3 62 49 28c27 15 50 27 51 25 1-1 23-51 48-112 26-48 40-105 65-151z" horiz-adv-x="1000" />
<glyph glyph-name="sport-course" unicode="&#xe82c;" d="m563 798c-41 0-84-50-87-87-2-38 25-72 62-83-7-2-13-4-19-8-6-1-12-4-17-9l-132-121c-19-17-14-47 9-57l82-34-15-81c-2-11 0-23 4-34l-16-135c-15-4-27-8-55-16-21-6-42-11-58-16-8-2-14-3-19-5-2 0-4 0-5-1 0 0 0 0 0 0-52-3-48-81 4-79 8 0 9 0 11 1 3 0 5 1 8 2 6 1 14 3 22 5 17 5 38 11 58 16 42 12 81 24 81 24 16 4 27 17 29 33l14 114 112-127 25-164c8-52 87-40 79 12l-26 176c-2 8-5 15-10 21l-144 161 9 48 28-11c43-18 69 45 27 63l-42 17 25 139c5 26-9 52-33 63 43 5 77 46 76 86-1 40-46 87-87 87z m-84-300l-5-30-19 8z" horiz-adv-x="1000" />
<glyph glyph-name="sport-nautique" unicode="&#xe82d;" d="m445 746l0-622 498 0-498 622z m-56-113l-332-509 332 0 0 509z m-221-566l55-113 609 0 111 113-498 0-277 0z" horiz-adv-x="1000" />
<glyph glyph-name="sport-piscine" unicode="&#xe82e;" d="m752 711c-2 0-5-1-8-1l-333-42c-34-4-53-41-36-70l123-221-415-173 65-11c21 6 45 11 74 11 60 0 100-22 122-32 9-4 14-6 17-7 4 1 8 3 17 7 23 10 62 32 122 32 60 0 99-22 122-32 9-4 13-6 17-7 4 1 8 3 17 7 14 6 35 17 63 24l-100 160-126 226 263 33c59 6 56 94-4 96z m-2-173c-57 0-104-47-104-105 0-57 47-104 104-104 58 0 104 47 104 104 0 58-46 105-104 105z m-528-411c-35 0-64-12-88-22-24-10-43-18-58-20l14-95c34 5 60 18 81 27 22 9 38 14 51 14 11 0 27-6 50-16 22-11 51-26 89-26 38 0 67 15 90 26 22 10 38 16 49 16 11 0 27-6 49-16 23-11 52-26 90-26 38 0 67 15 89 26 23 10 39 16 50 16 13 0 29-5 51-14 21-9 48-22 81-27l14 95c-15 2-34 10-58 20-24 10-52 22-88 22-38 0-67-15-90-25-22-11-38-17-49-17-11 0-27 6-49 17-23 10-52 25-90 25-38 0-67-15-89-25-23-11-39-17-50-17-11 0-27 6-49 17-23 10-52 25-90 25z" horiz-adv-x="1000" />
<glyph glyph-name="sport-tir" unicode="&#xe82f;" d="m346 686c-58 0-104-47-104-104 0-58 46-105 104-105 57 0 104 47 104 105 0 57-47 104-104 104z m542-125l0-21-188 0 0-42 0-41 167 0 0 41 62 0 0 63z m-605-121c-12 0-23-5-32-13l-167-167c-16-16-18-42-4-60l125-167c13-18 37-24 57-14l198 0 0 329 282 0c63-2 63 94 0 92z m-41-152l0-151-65 86z" horiz-adv-x="1000" />
<glyph glyph-name="sport-stade" unicode="&#xe830;" d="m64 674c-24 0-43-19-43-43l0-562c0-24 19-43 43-43l872 0c24 0 43 19 43 43l0 562c0 24-19 43-43 43z m44-87l349 0 0-138c-39-17-66-55-66-99 0-44 27-82 66-99l0-138-349 0z m436 0l348 0 0-474-348 0 0 138c38 17 65 55 65 99 0 44-27 82-65 99z m-44-215c13 0 22-9 22-22 0-12-9-22-22-22-12 0-22 10-22 22 0 13 10 22 22 22z" horiz-adv-x="1000" />
<glyph glyph-name="top-camping" unicode="&#xe831;" d="m500 850c-276 0-500-224-500-500 0-276 224-500 500-500 276 0 500 224 500 500 0 276-224 500-500 500z m0-77c234 0 423-189 423-423 0-234-189-423-423-423-234 0-423 189-423 423 0 234 189 423 423 423z m-120-67l-34-19 117-201c-85-142-163-288-249-429 188-2 383-4 545-5-84 143-166 287-249 430l119 205-34 19-107-186c-36 62-72 124-108 186z" horiz-adv-x="1000" />
<glyph glyph-name="top-canoe" unicode="&#xe832;" d="m500 850c-276 0-500-224-500-500 0-276 224-500 500-500 276 0 500 224 500 500 0 276-224 500-500 500z m0-77c218 0 397-164 420-375-17-38-42-83-83-105-9-4-16-7-24-11-5 52-88 168-176 160-14-1-27-5-41-13-69-39 31-139-44-173-1 0-2 0-3 0l-149 209c-4 6-12 10-20 10-18-1-28-22-17-37l130-182c-174-4-211 8-259 7-85-1-126 105-151 153 32 203 206 357 417 357z m47-159c-47 0-84-37-84-83 0-46 37-83 84-83 46 0 83 37 83 83 0 46-37 83-83 83z m357-389c-53-173-213-298-404-298-179 0-331 110-393 267 38-40 96-68 185-65 77 3 189 0 291 1l30-43c11-69 22-131 69-103 64 37 16 100-37 138l-6 8c61 2 115 6 147 15 41 12 84 41 118 80z" horiz-adv-x="1000" />
<glyph glyph-name="top-cheval" unicode="&#xe833;" d="m500 850c-125 0-238-47-326-123 0 0 2-1 2-1 9-7 13-13 18-20 22-2 44-5 61-12 69 49 153 79 245 79 234 0 424-188 424-422 0-156-85-292-210-366-1 121 19 151 12 179-7 28 3 53 25 76 21 23 22 66 24 94 0 6 0 10 0 12 0 0 0 0 1 0 28-56 9-101-21-154l84 22c22 79-27 208-73 189-9-6-17-9-35 8-28 27-92 24-147 7-13-4-13 25-9 41 3 14 13 17 7 91-5 74-16 85-37 94-12 6-14 7-1 24 5 7 9 22 9 33 1 47-59 69-87 33-5-5-17-12-27-14-22-5-24-15-4-18 4 0 11-1 16-2 0-5 1-13 3-20 3-11 14-25 24-31 16-10 17-12 10-30-5-14-37-30-37-43 0-21-22-110-52-127-46 9-62 51-87 88-16 28-61 72-88 87-11 5-32 11-47 10-27-2-24-5-39 20-17 26-25 21-28-16-1-21 1-28-18-49-9-11-17-29-19-40-1-11-8-31-17-43-14-23-15-24-5-43 6-10 10-16 14-17 11-2 18 12 48 27 29 16 36 8 56 26 2-2 7-22 19-43 18-35 21-44 18-71-2-20 0-42 7-62 11-62 39-79 45-96 20-78 29-154 30-243-126 73-212 210-212 367 0 6 1 12 2 19-8-1-17-1-27 1-23 4-39 17-48 27-1-16-4-31-4-47 0-276 225-501 501-501 276 0 501 225 501 501 0 276-225 499-501 499z m37-624c26 0 46-6 53-10 7-4 16-30 24-47 9-16 31-22 42-37 11-15 17-91 10-171-51-22-107-34-166-34-56 0-109 11-158 31 21 198 32 141 51 218 18 28 17 30 50 36 32 1 68 14 94 14z" horiz-adv-x="1000" />
<glyph glyph-name="top-delta" unicode="&#xe834;" d="m500 850c-276 0-500-224-500-500 0-276 224-500 500-500 276 0 500 224 500 500 0 276-224 500-500 500z m0-77c234 0 423-189 423-423 0-234-189-423-423-423-234 0-423 189-423 423 0 234 189 423 423 423z m9-52l-310-537c141 16 239 2 308-114 0-1 1-2 2-3l1 3c69 116 168 130 309 114l-310 537z" horiz-adv-x="1000" />
<glyph glyph-name="top-ecusson" unicode="&#xe835;" d="m104 850l0-17 0-736 0-4 0 0c1-33 7-60 20-80 14-20 34-33 58-40 47-14 109-9 192-9 29-1 49-9 66-23 18-13 32-32 45-58l18-33 14 35c10 27 24 43 42 54 18 12 41 19 70 24 80 0 142-4 189 9 24 7 44 20 58 40 13 20 19 47 20 80 0 2 0 3 0 3l0 0 0 755-38 0-623 0-131 0z" horiz-adv-x="1000" />
<glyph glyph-name="top-detente" unicode="&#xe836;" d="m500 892c-299 0-542-243-542-542 0-299 243-542 542-542 299 0 542 243 542 542 0 299-243 542-542 542z m0-84c254 0 458-204 458-458 0-253-204-458-458-458-253 0-458 205-458 458 0 254 205 458 458 458z m-384-264c0-25 0-50 0-75 11 0 22 0 33 0l271-156-206-119 0 56 62 0 0 67-197 0 0-67 68 0 0-141 67 0 0 8 272 157 273-157 0-10 67 0 0 144 65 0 0 67-197 0 0-67 65 0 0-57-206 119 270 156 44 0 0 75z" horiz-adv-x="1000" />
<glyph glyph-name="top-etoile" unicode="&#xe837;" d="m495 828l-115-364-380-6 310-222-111-364 307 227 311-218-24 72-96 289 303 229-381-3-124 360z" horiz-adv-x="1000" />
<glyph glyph-name="top-golf" unicode="&#xe838;" d="m500 850c-276 0-500-224-500-500 0-276 224-500 500-500 276 0 500 224 500 500 0 276-224 500-500 500z m0-77c234 0 423-189 423-423 0-200-137-366-323-411 5 8 4 18-2 25-90 99-142 210-140 347 2 37 14 56 31 74 16 18 38 34 53 63 7 14 10 27 9 38 0 12-6 21-12 28 0 1 0 1 0 2 1 11-5 20-13 28 7-2 13-4 21-4 34 0 63 30 63 67 0 37-29 66-63 66-35 0-63-29-63-66 0-13 3-26 10-36-13 5-29 7-42 6-59-4-64 39-71 72-1 7 4 13 9 19 9 12 35 40 64 51 76-5 226-50 316-113-10-35-13-59-5-65 8-5 50 54 46 64-10 22-225 128-359 143-34-10-65-32-92-56-9-11-15-24-17-39-2-18 3-34 6-51 12-47 44-71 69-83-7-19-16-43-34-72-22-36-41-60-57-87-15-26-25-56-27-100-3-48 14-106 36-165 10-27 22-54 32-80 12-27 23-52 33-76-186 44-324 211-324 411 0 234 189 423 423 423z m-102-606c14-18 26-38 39-57 37-62 84-118 132-172 1-2 3-3 5-4-24-4-49-7-74-7-19 0-38 2-56 4 0 4 0 8-1 11-12 27-27 58-41 90-12 45-16 83-13 108 1 18 6 21 9 27z" horiz-adv-x="1000" />
<glyph glyph-name="top-montagne" unicode="&#xe839;" d="m500 850c-276 0-500-224-500-500 0-276 224-500 500-500 276 0 500 224 500 500 0 276-224 500-500 500z m0-77c234 0 423-189 423-423 0-234-189-423-423-423-234 0-423 189-423 423 0 234 189 423 423 423z m-57-64l-241-611 600 0-181 454-59-164-119 321z" horiz-adv-x="1000" />
<glyph glyph-name="top-mouillage" unicode="&#xe83a;" d="m500 850c-276 0-500-224-500-500 0-276 224-500 500-500 276 0 500 224 500 500 0 276-224 500-500 500z m0-77c234 0 423-189 423-423 0-234-189-423-423-423-234 0-423 189-423 423 0 234 189 423 423 423z m0-35c-70 0-128-61-128-128 0-66 45-114 104-125l0-407c-152 9-252 104-252 104l1-1c-6 12-22 16-34 9-12-8-15-24-7-35 1 0 113-160 292-174l0-15c0-32 49-32 48 0l0 14c181 13 290 174 291 175l0 0c6 8 5 18 1 26-5 8-14 15-24 13l0 0 0 0c-6-2-12-5-15-11l1 1c0 0-102-97-254-106l0 407c59 11 104 59 104 125 0 67-58 128-128 128z m0-48c44 0 80-35 80-80 0-44-36-79-80-79-44 0-80 35-80 79 0 45 36 80 80 80z" horiz-adv-x="1000" />
<glyph glyph-name="top-natation" unicode="&#xe83b;" d="m518 850c-275 0-500-224-500-500 0-42 6-83 16-123-16 1-33 0-57-4-50-9-22-79 19-78 22 1 44 1 66 2 78-175 253-297 456-297 260 0 474 199 498 453 6 0 13 2 18 6 16 11 21 35 11 51 0 0-3 2-3 2-1 2-10 16-26 35-24 254-238 453-498 453z m0-77c188 0 346-121 402-289-51 34-117 62-196 62-53 0-97-17-133-44-35-27-63-61-89-94-52-66-97-127-176-148-76-20-150-29-212-33-12 39-19 80-19 123 0 234 189 423 423 423z m-179-209c-60 0-108-49-108-109 0-59 48-108 108-108 60 0 108 49 108 108 0 60-48 109-108 109z m403-122c87 0 158-49 199-85 0-2 0-5 0-7 0-234-189-423-423-423-161 0-300 89-372 221 64 1 127 1 191 4 139 8 214 95 265 167 26 36 48 69 70 90 22 22 40 33 70 33z m-151-33c-10-5-22-13-33-25-4-4-7-8-10-12-5-6-11-12-16-19-14-21-27-45-36-69 23 21 42 44 59 69 14 19 28 37 41 55-2 0-3 1-5 1z m105-60c-14-17-28-38-47-64-27-37-63-82-113-119 106-79 250-58 382-7 34 15 46 116 24 137-174-7-216 23-246 53z" horiz-adv-x="1000" />
<glyph glyph-name="top-nautique" unicode="&#xe83c;" d="m500 850c-276 0-500-224-500-500 0-276 224-500 500-500 276 0 500 224 500 500 0 276-224 500-500 500z m0-77c234 0 423-189 423-423 0-125-54-236-140-314-2 1-4 1-6 1l-408 0 0 52c15 0 95-2 190-3 51 0 103 0 142 0 19 0 35 1 47 1 6 0 10 1 14 1 2 0 3 0 6 1 1 0 2 0 5 2 0 1 1 1 2 2 1 1 3 3 3 3 0 0 3 7 3 7 0 0-1 8-1 8 0 0 0 2-1 2 0 1 0 1 0 1 0 1-1 1-1 1 0 1-1 2-1 2-1 2-2 4-4 6-3 5-8 11-14 19-11 16-28 39-47 65-39 54-91 125-143 195-52 70-103 140-141 192-20 26-35 47-46 62-6 7-10 13-13 16 0 1 0 1 0 1l0 0-3 4c0 0 0 0 0 1l-1 0c0 0 0 0 0 0 0 0-27-20-27-20l-3 10 0-579 0 0 0-52-117 0c0 0-1 0-2 0-85 77-139 188-139 313 0 234 189 423 423 423z m-174-808l348 0c-53-24-112-38-174-38-62 0-121 14-174 38z" horiz-adv-x="1000" />
<glyph glyph-name="top-piscine" unicode="&#xe83d;" d="m500 850c-276 0-500-224-500-500 0-276 224-500 500-500 276 0 500 224 500 500 0 276-224 500-500 500z m0-77c234 0 423-189 423-423 0-234-189-423-423-423-234 0-423 189-423 423 0 234 189 423 423 423z m-280-250l0-346 560 0 0 346-560 0z" horiz-adv-x="1000" />
<glyph glyph-name="top-refuge" unicode="&#xe83e;" d="m500 752c-158-132-317-264-475-395l149 0 0-409 652 0 0 409 149 0z" horiz-adv-x="1000" />
<glyph glyph-name="top-ski" unicode="&#xe83f;" d="m500 850c-276 0-500-224-500-500 0-26 2-52 6-77l-29-14c-10-4-15-16-11-25 4-10 17-15 26-11l22 10c17-71 49-136 93-191l-151 0c-11 0-20-9-20-20 0-10 9-19 20-19l184 1c91-95 218-154 360-154 142 0 270 60 361 155l129 1c1 0 1 0 2 0 0 0 14 2 29 9 15 7 35 20 42 43 4 13-8 27-20 26-8-1-14-7-16-15-2-8-11-14-22-19-9-4-15-6-16-6-1 0-3 0-3 0l-92 0c66 84 106 191 106 306 0 276-225 500-500 500z m0-77c164 0 306-93 376-230l-17-17c-4 2-8 3-12 3-50-6-115-22-158 28-6 9-15 13-17 24-4 15-12 27-26 35-14 8-26 12-45 12-34 2-75 5-115-7-40-11-79-35-99-78-28-62-38-108-39-113l-269-124c-2 15-2 29-2 44 0 234 189 423 423 423z m194-59c-31 0-57-26-57-57 0-32 26-58 57-58 32 0 58 26 58 58 0 31-26 57-58 57z m-214-159c16 1 15-14 10-24-15-31-29-62-35-99-7-36-16-66-26-81-10-15-27-44-54-66-26-22-54-49-85-71-63-46-121-86-121-86-6-4-10-10-11-17 0 0-1-4-1-9-35 48-60 104-72 164l280 130 2 0c12-2 26 7 29 20 9 64 30 106 76 138 3 1 5 1 8 1z m413-49c19-48 30-101 30-156 0-121-51-230-132-307l-85 0c-1 11-11 20-22 22-30 5-44 8-54 10 1 12 1 24 4 52 10 98-8 126-8 126 0 0 24 22 14 13l253 240z m-239-17c41-34 105-23 146-18l-193-185c-20 29-23 67-37 99 6 49 14 51 52 71 22 9 19 17 32 33z m-141-197c5 0 10-1 15-5 14-12 23-32 32-42l-87-84c-9-7-10-21-2-29 7-8 21-7 28 1l80 76c4-22 6-53 6-81-1-37-5-68-5-68-1-6 0-12 3-17l-366 0c3 6 3 14 1 20-6 16-2 34 3 41 4 6 67 36 125 78 51 37 78 45 128 84 13 10 25 25 39 26z m231-287c-69-49-153-78-244-78-91 0-175 28-243 77l487 1z" horiz-adv-x="1000" />
<glyph glyph-name="top-tennis" unicode="&#xe840;" d="m500 850c-276 0-500-224-500-500 0-276 224-500 500-500 276 0 500 224 500 500 0 276-224 500-500 500z m0-77c234 0 423-189 423-423 0-234-189-423-423-423-234 0-423 189-423 423 0 234 189 423 423 423z m0-131c-25 0-50-4-73-10-3-1-6-4-6-7l0-9c0-137 40-179 85-238 45-57 95-131 96-290 0-5 5-9 10-7 106 44 179 128 179 270 0 141-130 291-291 291z m-145-41c0 0-1 0-1 0-1 0-2 0-3-1-86-51-142-143-142-249 0-162 130-293 291-293 12 0 23 1 35 2 3 1 6 4 6 8l0 16c0 150-38 199-83 257-42 54-90 119-96 253 0 4-3 7-7 7z" horiz-adv-x="1000" />
<glyph glyph-name="top-voile" unicode="&#xe841;" d="m500 850c-276 0-500-224-500-500 0-276 224-500 500-500 276 0 500 224 500 500 0 276-224 500-500 500z m0-77c234 0 423-189 423-423 0-64-14-124-40-179l-380 583 0-588 378 0c-69-142-213-239-381-239-234 0-423 189-423 423 0 234 189 423 423 423z m-63-197l-284-410 284 0 0 410z m-218-473l95-80 374 0 121 80-590 0z" horiz-adv-x="1000" />
<glyph glyph-name="tourisme-caravane" unicode="&#xe842;" d="m463 264c54 0 97-43 97-97 0-54-43-97-97-97-54 0-97 43-97 97 0 54 43 97 97 97z m-203 366c-115 0-173-58-173-173l0-290 242 0c0 74 60 134 134 134 74 0 134-60 134-134l316 0 0 58-74 0 0 232c0 115-58 173-173 173l-406 0z m78-58c28 1 60 0 96 0l0-173-289 0c0 152-1 171 193 173z m212 0c231 0 231 0 231-173l-231 0 0 173z" horiz-adv-x="1000" />
<glyph glyph-name="tourisme-chateau" unicode="&#xe843;" d="m89 658l-68-68 137-137 0-206-137-137 68-68 137 137 548 0 137-137 68 68-137 137 0 206 137 137-68 68-137-137-548 0-137 137z" horiz-adv-x="1000" />
<glyph glyph-name="tourisme-curiosite" unicode="&#xe844;" d="m40 810l0-920 920 0 0 920-920 0z m204-204l512 0 0-512-512 0 0 512z" horiz-adv-x="1000" />
<glyph glyph-name="tourisme-gite" unicode="&#xe845;" d="m172-129l0 555-151 0 504 403 454-403-151 0 0-555z" horiz-adv-x="1000" />
<glyph glyph-name="tourisme-hotel" unicode="&#xe846;" d="m500 765l-397-176 44-99 353 157 353-158 44 99z m-334-346c-25-1-45-22-45-47l0-267 0-4 0-166 92 0 0 79 575 0 0-79 91 0 0 166 0 4 0 162c2 63-93 63-91 0l0-120-575 0 0 225c0 26-21 47-47 47z m164-65c-47 0-86-38-86-84 0-47 39-85 86-85 48 0 87 38 87 85 0 46-39 84-87 84z m287 0c-100 0-200-113-200-113l0-56 333 0 0 56c0 0-67 113-133 113z" horiz-adv-x="1000" />
<glyph glyph-name="tourisme-moulin" unicode="&#xe847;" d="m447 324l106 0 0-211-106 0 0 211z m53 210l53-52-53-53-53 53 53 52z m-263 316l-105-105 210-211-52-52 52 0 0-53-210-211 105-105 105 105 0-105-52-263 421 0-53 263 0 105 105-105 105 105-210 264 53 0-53 52 210 211-105 105-210-210-53 52-53-52-210 210z" horiz-adv-x="1000" />
<glyph glyph-name="tourisme-pique_nique" unicode="&#xe848;" d="m172 569l657 0 0-73-73 0-146-146 146-146 73 0 0 73-73 0 0 73 219 0 0-73-73 0 0-146-219 0-146 146-73 0-146-146-219 0 0 146-73 0 0 73 219 0 0-73-73 0 0-73 73 0c0 0 146 146 146 146l-146 146 146 0 73-73 73 0 73 73-438 0 0 73z" horiz-adv-x="1000" />
<glyph glyph-name="tourisme-plage" unicode="&#xe849;" d="m375 722c-45-5-133-29-133-29 0 0-85-56-117-96-29-36-47-81-62-125-15-41-26-129-26-129l26-58c0 0 35 51 62 62 19 8 63 0 63 0 0 0 33 52 60 63 20 8 65 0 65 0l23 23 164-336-500-125 1000 63c0 0-207 52-312 62-42 4-125 0-125 0l-188 375 61 0c0 0 35 52 62 63 20 8 65 0 65 0 0 0 35 51 62 62 19 8 63 0 63 0 0 0-39 46-63 63-38 27-80 52-125 62-41 10-84 5-125 0z" horiz-adv-x="1000" />
<glyph glyph-name="tourisme-tente" unicode="&#xe84a;" d="m667 767l-84 0-83-125-83 125-84 0 125-167-291-625-125 0 0-42 916 0 0 42-333 0-250 0 125 292 125-292 208 0-291 625 125 167z" horiz-adv-x="1000" />
<glyph glyph-name="tourisme-tour" unicode="&#xe84b;" d="m240-67l52 573-52 52 0 209 104 0 0-104 104 0 0 104 104 0 0-104 104 0 0 104 104 0 0-209-52-52 52-573-156 0 0 181c0 97-24 121-52 132-27 11-77 11-104 0-27-11-52-35-52-132l0-181z" horiz-adv-x="1000" />
<glyph glyph-name="transport-ancre" unicode="&#xe84c;" d="m500 809c-66 0-119-54-119-120 0-38 18-72 46-94l-88-6 0-55c0 0 48 9 69 0 23-9 42-29 52-52 1-130 1-223 0-322-12-33-36-66-67-81-16-7-36-3-54 0-17 4-34 10-49 20-25 16-46 38-63 62-10 16-21 53-21 53l26 0-53 107-55-107 30 0c0 0 8-75 25-108 19-34 48-61 80-85 31-23 68-38 104-52 27-10 58-9 83-24 22-13 54-54 54-54 0 0 32 41 54 54 25 15 56 14 83 24 36 14 75 27 105 52 35 30 58 71 79 112 12 25 25 81 25 81l30 0-55 107-53-107 26 0c0 0-8-45-21-63-15-22-40-39-63-52-15-9-31-16-49-20-17-3-37-7-54 0-31 15-55 48-67 81-1 145-1 192 0 322 10 23 31 43 54 52 21 9 67 0 67 0l0 55-88 6c28 22 46 56 46 94 0 66-53 120-119 120z m0-48c40 0 72-32 72-72 0-40-32-71-72-71-40 0-72 31-72 71 0 40 32 72 72 72z" horiz-adv-x="1000" />
<glyph glyph-name="transport-avion" unicode="&#xe84d;" d="m483 768l34 0 33-33-100 0 33 33z m0 67l-33-33-34-67 0-234-401-168 0-100 401 67 34-301-67-67 0-67 117 33 117-33 0 67-67 67 34 301 401-67 0 100-401 168 0 234-34 67-33 33-34 0z" horiz-adv-x="1000" />
<glyph glyph-name="transport-bateau" unicode="&#xe84e;" d="m130-57c-27 0-74-37-74-37l0-37 888 0 0 37c0 0-46 37-74 37-28 0-46-37-74-37-28 0-46 37-74 37-28 0-46-37-74-37-28 0-46 37-74 37-28 0-46-37-74-37-27 0-46 37-74 37-27 0-46-37-74-37-28 0-46 37-74 37-27 0-46-37-74-37-27 0-46 37-74 37z m259 629c69 26 154 28 222 0 16-7 37-37 37-37l0-74-148 37-148-37 2 80c0 0 20 26 35 31z m37 259l0-185c0 0-88-5-111-37-36-50 0-185 0-185l-74-37c0 0 62-195 74-296 3-24 0-74 0-74 0 0-25 3-37 0-27-6-46-37-74-37-27 0-46 37-74 37-27 0-74-37-74-37l0-37c0 0 47 37 74 37 28 0 47-37 74-37 28 0 47 37 74 37 28 0 46-37 74-37 28 0 47 37 74 37 28 0 47-37 74-37 28 0 47 37 74 37 28 0 46-37 74-37 28 0 46 37 74 37 28 0 46-37 74-37 28 0 46 37 74 37 28 0 74-37 74-37l0 37c0 0-46 37-74 37-28 0-46-37-74-37-28 0-47 31-74 37-12 3-37 0-37 0 0 0-3 50 0 74 12 101 74 296 74 296l-74 37c0 0 36 135 0 185-23 32-111 37-111 37l0 185z" horiz-adv-x="1000" />
<glyph glyph-name="transport-bus" unicode="&#xe84f;" d="m348 217c0 0 1 0 1 0l292 0c28 1 28-42 0-42l-292 0c-28 0-29 41-1 42z m376 63c23 0 42-19 42-42 0-23-19-42-42-42-23 0-41 19-41 42 0 23 18 42 41 42z m-458 0c23 0 42-19 42-42 0-23-19-42-42-42-23 0-42 19-42 42 0 23 19 42 42 42z m82 20c0 1 1 1 1 0l292 0c28 1 28-42 0-41l-292 0c-28-1-29 41-1 41z m173 295l208 0c20 0 42-22 42-42l0-208-42 0c0 0-23 34-41 42-26 10-58 10-84 0-18-8-41-42-41-42l-42 0z m-250 0l208 0 0-250-250 0 0 208c0 20 22 42 42 42z m42 83l375 0 0-41-375 0z m187 73c-115 0-229-10-271-31l-83-42 0-541c42-42 83-42 83-42l0-83c0-84 125-84 125 0l0 83 292 0 0-83c0-84 125-84 125 0l0 83c0 0 42 0 83 42l0 541-83 42c-42 21-156 31-271 31z" horiz-adv-x="1000" />
<glyph glyph-name="transport-parking" unicode="&#xe850;" d="m171-80l0 860 278 0q159 0 207-13 74-19 123-84 50-65 50-168 0-79-28-133-29-54-74-85-44-30-89-40-63-13-180-13l-114 0 0-324-173 0z m173 714l0-243 95 0q103 0 138 13 34 13 54 42 19 29 19 67 0 47-27 77-28 31-70 39-31 5-125 5l-84 0z" horiz-adv-x="1000" />
<glyph glyph-name="transport-sncf" unicode="&#xe851;" d="m717 189c14 2 33 8 44 11l20 7 32 125 121 4 16 49-125 0 22 78 143-2 10 47-198 2-71-268c-5-7-53-11-79-6-61 10-94 61-82 125 6 29 21 55 41 72 26 23 44 29 95 32l45-3 10 49c0 0 10 1-52 3-96 2-133-28-169-82l21 78-52 0-60-222c-29 84-64 167-106 223l-54 1-42-160c8-15 19-26 27-42 4-6 7-10 8-9l37 135c46-70 75-163 99-247l58 0c0 0 23 84 36 126 0 0 4-23 8-35 12-41 49-76 94-90 24-7 71-8 103-1z m-544 0c47 10 86 51 86 89 0 40-14 55-90 102-49 31-58 42-50 61 27 40 106 28 118 29l12 42c-11 6-73 6-106-2-56-13-87-44-87-86 0-30 20-55 67-84 48-30 63-42 68-58 6-17 1-29-16-41-20-13-86-11-126 6-18 7-33 14-33 14l-16-48c0 0 0-3 45-17 39-13 92-16 128-7z" horiz-adv-x="1000" />
<glyph glyph-name="transport-taxi" unicode="&#xe852;" d="m417 635l0-70-146 0c-21-21-42-167-42-167 0 0-41-21-41-41 0-56 0-112 0-167l41 0 0-83c0-21 21-42 42-42l42 0c20 0 41 21 41 42l0 83 292 0 0-83c0-21 21-42 42-42l41 0c21 0 42 21 42 42l0 83 42 0c0 55 0 111 0 167 0 20-42 41-42 41 0 0-21 146-42 167l-146 0 0 70z m-104-112l375 0c41-21 41-125 41-125l-458 0c0 0 0 104 42 125z m-84-208l84 0 0-42-84 0z m459 0l83 0 0-42-83 0z" horiz-adv-x="1000" />
<glyph glyph-name="transport-train" unicode="&#xe853;" d="m363 173l275 0 0-78-275 0 0 78z m275 157l78 0 0-78-78 0 0 78z m-354 0l79 0 0-78-79 0 0 78z m39 315l275 0 79 0 39-40 0-157-39-39-354 0-39 39 0 157 39 40z m79 78l196 0 0-39-196 0 0 39z m236 40l38 40-38 38-40-39 40-39z m-275 0l-79 0-39-40 0-78 0-236 0-157 0-39 39-40 0-78 39-40-78-196 78 0 40 196 275 0 39-196 78 0-78 196 39 40 0 78 39 40 0 117 0 393-39 40-78 0-275 0z m0 78l-40-39 40-39 39 39-39 39z" horiz-adv-x="1000" />
<glyph glyph-name="transport-valise" unicode="&#xe854;" d="m691 454l76-153-229-153-76 153z m-305 152c70 30 158 30 229 0 33-13 76-76 76-76l-382 0c0 0 43 63 77 76z m0 77c-67-28-153-153-153-153l-77 0c-36 0-76-40-76-76l0-382c0-36 40-77 76-77l688 0c36 0 76 41 76 77l0 382c0 36-43 62-76 76-24 10-77 0-77 0 0 0-86 125-152 153-71 29-159 29-229 0z" horiz-adv-x="1000" />
<glyph glyph-name="transport-velo" unicode="&#xe855;" d="m312 628l-2 0c-14-3-25-11-34-22-9-11-15-29-9-47 7-15 21-24 31-28 6-2 9-2 14-3-1-3-2-7-4-12-3-4-5-10-5-16-9-27-18-55-27-82-20 8-42 13-65 13-99 0-179-81-179-180 0-99 80-179 179-179 99 0 180 80 180 179 0 60-29 112-74 145 3 7 5 14 7 22l159-183c0-1 0-2 0-3 0-21 13-40 33-47l10-47c-20-14-7-45 16-41l27 4c24 4 26 39 2 45l-9 47c6 5 10 11 14 18l37 2c18-81 83-141 176-141 92 0 179 80 179 179 0 99-80 180-179 180-26 0-50-6-73-16l-53 84 14 40c32 14 37 20 37 30 1 9-5 21-29 21l-93 0c-15 0-23-5-23-18 0-13 17-17 33-22 7-3 16-8 26-11l-6-20-264 5c0 0 0 0 0 1 1 11-2 30-16 40l-3 3-4 1c-10 3-18 4-22 6-4 1-3 0-3 1l0 0 0 0c0 0-1-1 1 1 2 3 6 5 8 6 23 0 47-1 71-2l2 46c-25 0-51 2-77 1z m32-150l262-4-63-184-4 20c18 13 8 42-14 41-1 0-3 0-4 0l-26-4c-25-4-26-40-1-45l2-12-155 178c1 4 2 7 3 10z m300-34l33-53c-39-31-65-78-67-132l-30-2z m-433-59c19 0 36-4 52-10-4-13-8-26-12-38-9-22-19-42-32-55-2 1-5 1-8 1-17 0-31-14-31-32 0-17 14-32 31-31 14 0 26 8 30 21 29 22 42 53 53 79l0 1 0 0c3 9 6 19 9 28 26-25 42-59 42-98 0-74-59-134-134-134-74 0-134 60-134 134 0 74 60 134 134 134z m578 0c74 0 134-60 134-134 0-74-66-134-134-134-68 0-114 42-129 100l111 8c6-4 12-5 18-5 4 0 8 0 12 2 9 2 17 9 18 18l1 0 0 0c2 6 2 13 0 19-3 9-9 17-18 21l-61 96c15 6 31 9 48 9z m-87-33l52-83-98-7c3 37 20 68 46 90z" horiz-adv-x="1000" />
<glyph glyph-name="transport-voiture" unicode="&#xe856;" d="m688 350l83 0 0-42-83 0 0 42z m-459 0l84 0 0-42-84 0 0 42z m84 208l375 0c41-20 41-125 41-125l-458 0c0 0 0 105 42 125z m-42 42c-21-21-42-167-42-167 0 0-41-20-41-41l0-42 0-125 41 0 0-83c0-21 21-42 42-42l42 0c20 0 41 21 41 42l0 83 292 0 0-83c0-21 21-42 42-42l41 0c21 0 42 21 42 42l0 83 42 0 0 125 0 42c0 21-42 41-42 41 0 0-21 146-42 167l-458 0z" horiz-adv-x="1000" />
<glyph glyph-name="commerce-bar" unicode="&#xe857;" d="m531 537l62-62-62-63-62 63 62 62z m-373 187l311-374 0-311-187 0 0-63 436 0 0 63-187 0 0 311 311 374-684 0z" horiz-adv-x="1000" />
<glyph glyph-name="commerce-boutique" unicode="&#xe858;" d="m500 636c-35 0-67-23-95-46-27-23-44-54-65-87-20-33-47-96-53-111l-162 0c-16 0-27-15-22-31 0 0 23-70 53-142 15-35 31-71 48-99 8-14 16-26 25-36 9-10 19-20 37-20l468 0c18 0 28 10 37 20 9 10 17 22 25 36 17 28 33 64 48 99 30 72 53 142 53 142 5 16-6 31-22 31l-162 0c-5 15-33 78-53 111-20 33-38 64-65 87-28 23-60 46-95 46z m0-66c19 0 30-11 48-27 19-16 39-48 55-74 16-25 30-56 39-77l-284 0c9 21 24 52 39 77 16 26 36 58 55 74 18 16 30 27 48 27z m-187-262c12 0 24-7 29-18l47-94c19-39-39-69-59-29l-47 93c-11 23 5 49 30 48z m187 0c18 1 33-14 33-33l0-94c1-45-67-45-66 0l0 94c0 18 14 33 33 33z m186 0c25 2 43-25 31-48l-47-93c-20-40-78-10-59 29l47 94c5 11 16 18 28 18z" horiz-adv-x="1000" />
<glyph glyph-name="commerce-caddy" unicode="&#xe859;" d="m762 704c-2 0-4 0-6-1-2 0-4-1-5-2-1-1-2-1-2-2-1 0-1 0-2-1-1-1-1-2-2-3-1-1-2-3-2-4-1-1-1-3-1-4 0-1 0-2-1-3l0-52-626 0c-14 0-24-12-21-26l72-287c2-9 9-15 18-16l486-69 0-33-411 0c-14-1-24-14-20-27-47-3-84-42-84-89 0-49 40-89 89-89 49 0 89 40 89 89 0 31-15 58-39 74l317 0c-24-16-40-43-40-74 0-49 41-89 90-89 49 0 89 40 89 89 0 31-16 58-39 74l51 0c2 0 5 0 7 1 1 0 2 1 3 2 2 0 3 1 4 2 0 0 1 1 1 1 1 1 1 1 2 2 0 1 0 1 1 2 0 1 1 2 2 3 0 1 0 2 0 2 1 3 1 6 1 9 0 0-1 1-1 2 0 0 0 1 0 2-1 0-1 1-1 2 0 0-1 1-1 1-1 2-3 4-4 5-2 2-3 3-5 4-2 0-3 1-4 1-1 0-2 0-2 0-1 0-2 1-2 1l-1 0-47 0 68 407 0 0 0 0c0 1 0 1 0 2l0 0c0 1 0 1 0 2l0 51 123 0 0 41z m-621-113l70 0 7-71-59 0z m112 0l52 0 4-71-49 0z m93 0l55 0 5-71-55 0z m97 0l65 0-1-71-59 0z m107 0l66 0-7-71-61 0z m108 0l80 0-12-71-75 0z m-489-113l53 0 4-44-46 3z m94 0l49 0 3-51-47 4z m91 0l55 0 3-58-55 4z m96 0l56 0-1-64-51 3z m98 0l57 0-8-71-50 4z m99 0l72 0-13-79-67 5z m-457-84l39-2 5-54-31 4z m81-5l47-4 4-60-45 7z m89-7l55-4 5-67-56 8z m97-7l47-3-1-72-41 5z m89-6l47-3-8-78-40 6z m89-6l64-5-14-84-58 8z m-391-224c30 0 53-24 53-54 0-30-23-54-53-54-30 0-54 24-54 54 0 30 24 54 54 54z m417 0c29 0 53-24 53-54 0-30-24-54-53-54-30 0-54 24-54 54 0 30 24 54 54 54z" horiz-adv-x="1000" />
<glyph glyph-name="commerce-cafe" unicode="&#xe85a;" d="m50 107c0 0 42-81 80-81l724 0c38 0 81 81 81 81l-644 0z m784 490c8-1 16-3 20-8 38-38 38-123 0-161-19-19-80 0-80 0l0 161c0 0 34 11 60 8z m-3 77c-26 1-57-4-57-4l-563 0 0-403c0-38 42-80 80-80l402 0c38 0 81 42 81 80l0 81c0 0 56-10 80 0 35 14 66 45 81 80 20 50 20 111 0 161-15 35-46 66-81 81-6 2-14 3-23 4z" horiz-adv-x="1000" />
<glyph glyph-name="commerce-cb" unicode="&#xe85b;" d="m171 571c-94 0-171-76-171-170l0-97c0-94 77-171 171-171l158 0c94 0 170 77 170 171l0 17-217 0 0 54 217 0 0 26c0 94-76 170-170 170l-158 0z m391-4l0-37 0-158 149 0 106 0 94 0c49 0 89 40 89 89l0 17c0 49-40 89-89 89l-94 0-106 0-149 0z m0-244l0-36 0-158 149 0 106 0 94 0c49 0 89 40 89 88l0 18c0 48-40 88-89 88l-94 0-106 0-149 0z" horiz-adv-x="1000" />
<glyph glyph-name="commerce-essence" unicode="&#xe85c;" d="m717 517l42-42 0-42c0 0-32-9-42 0-19 20 0 84 0 84z m-416 125l208 0 0-125-208 0z m-84 83l0-292 42 0 0-416-83 0 0-42 458 0 0 42-83 0 0 333c0 0 29 5 41 0 19-7 35-23 42-42 32-77-32-173 0-250 8-18 24-34 42-41 25-11 57-11 83 0 18 7 34 23 42 41 53 129 0 417 0 417l-167 167 0-42 42-42c0 0-16-86 0-125 7-18 23-34 41-41 13-6 42 0 42 0 0 0 79-255 0-334-20-19-64-19-83 0-69 69 37 202 0 292-8 18-24 34-42 42-26 10-83 0-83 0l0 41 41 0 0 84 0 208z" horiz-adv-x="1000" />
<glyph glyph-name="commerce-garage" unicode="&#xe85d;" d="m271 715c-21-21-42-167-42-167 0 0-41-21-41-42l0-41 0-125 41 0 0-84c0-21 21-41 42-41l42 0c20 0 41 20 41 41l0 84 292 0 0-84c0-21 21-41 42-41l41 0c21 0 42 20 42 41l0 84 42 0 0 125 0 41c0 21-42 42-42 42 0 0-21 146-42 167l-458 0z m42-42l375 0c41-21 41-125 41-125l-458 0c0 0 0 104 42 125z m-84-208l84 0 0-42-84 0 0 42z m459 0l83 0 0-42-83 0 0 42z m-542-313l0-83 292 0 0-84 125 0 0 84 291 0 0 83-708 0z" horiz-adv-x="1000" />
<glyph glyph-name="commerce-mecanique" unicode="&#xe85e;" d="m106 39l0 78c0 0 44 64 78 79 25 10 79 0 79 0l156 156-235 235 0 79 79 0 235-235 157 156c0 0-10 55 0 79 14 34 78 78 78 78l78 0-78-78 78-79 79 79 0-79c0 0-45-64-79-78-24-10-78 0-78 0l-157-157 79-78 78 0c0 0 128-89 157-157 10-24 0-78 0-78l-79-79c0 0-54-10-78 0-68 29-157 157-157 157l0 79-78 78-157-157c0 0 10-54 0-78-14-34-78-79-78-79l-79 0 79 79-79 78z" horiz-adv-x="1000" />
<glyph glyph-name="commerce-monnaie" unicode="&#xe85f;" d="m742 739l-673-258 54-140 672 257 1 0-54 141z m104-276l-345-132c14 3 29 5 44 5 60 0 114-27 151-69 29 17 63 28 99 28 9 0 18-2 27-3l79 30-53 140-2 1z m-392-150l-280-107 54-141 123 47c-2 9-3 18-3 27 0 76 44 141 106 174z m91-38c-75 0-136-60-136-136 0-75 61-136 136-136 50 0 93 27 117 67 13-62 67-109 133-109 76 0 136 61 136 137 0 75-60 136-136 136-50 0-93-27-116-67-13 62-68 108-134 108z" horiz-adv-x="1000" />
<glyph glyph-name="commerce-poste" unicode="&#xe860;" d="m93 150c180 48 355 101 530 145 2-2-78-111-86-117-18-16-16-15-140-20-101-3-202-8-304-8z m-7 46c94 46 271 104 296 210 206 5 412 8 618 12-350-83-643-161-958-250-22-6-40-11-42-11-2 0 37 17 86 39z m95 349c-5 2 373 6 491 5 70 0 74-1 84-6 17-8 19-24 8-48-6-14-31-50-35-51-127-3-224-3-360-5-61 48-121 76-188 105z" horiz-adv-x="1000" />
<glyph glyph-name="commerce-restaurant" unicode="&#xe861;" d="m604-8l56 333-56 56 56 333 55 56 56 0 0-778c0 0-35-47-56-56-20-8-35-8-55 0-21 9-56 56-56 56z m-375 778l56 0 0-222 55 0 0 222 56 0 0-222 55 0 0 222 56 0 0-278-56-55-55 0 55-445c67 1385 0 0 0 0l-55-56-56 0-55 56 55 445-55 0-56 55z" horiz-adv-x="1000" />
<glyph glyph-name="commerce-veterinaire" unicode="&#xe862;" d="m255-56c-45 10-62 30-62 77 0 94 105 231 218 287 51 25 85 30 127 20 99-23 221-142 259-249 16-47 13-93-8-115-18-19-76-30-117-22-11 2-47 13-79 24-57 18-60 19-95 19-33 0-39-2-87-17-86-27-120-33-156-24z m-83 274c-38 14-74 48-95 91-17 35-22 59-20 96 3 62 39 99 91 95 54-4 106-52 130-121 8-22 9-33 9-60 0-30 0-34-11-55-12-25-28-41-48-47-17-5-40-5-56 1z m598 0c-45 17-68 76-54 137 17 79 76 141 136 145 36 3 62-13 81-48 7-14 9-24 10-49 2-36-4-63-20-97-14-28-55-71-80-82-20-10-56-13-73-6z m-421 231c-51 14-98 73-111 140-5 26-3 75 5 99 7 23 27 49 48 61 15 10 20 11 43 11 32 0 52-9 79-36 21-21 36-46 48-79 10-29 12-98 2-125-8-23-28-49-47-61-18-11-47-15-67-10z m249 3c-18 7-44 31-53 51-28 59-18 140 24 199 16 23 32 37 56 50 23 12 61 11 83-2 37-21 54-56 57-110 2-60-16-113-54-152-34-36-77-49-113-36z" horiz-adv-x="1000" />
<glyph glyph-name="construction-immeuble" unicode="&#xe863;" d="m208 767l0-834 250 0 0 125 84 0 0-125 250 0 0 834-584 0z m84-84l83 0 0-125-83 0 0 125z m166 0l84 0 0-125-84 0 0 125z m167 0l83 0 0-125-83 0 0 125z m-333-208l83 0 0-125-83 0 0 125z m166 0l84 0 0-125-84 0 0 125z m167 0l83 0 0-125-83 0 0 125z m-333-208l83 0 0-125-83 0 0 125z m166 0l84 0 0-125-84 0 0 125z m167 0l83 0 0-125-83 0 0 125z" horiz-adv-x="1000" />
<glyph glyph-name="construction-maison" unicode="&#xe864;" d="m521 746l-417-333 125 0 0-459 542 0 0 459 125 0-375 333z m-21-347l175-174-175-174-174 174 174 174z" horiz-adv-x="1000" />
<glyph glyph-name="divers-photo" unicode="&#xe865;" d="m357 389c-45-45-45-146 0-191 45-45 146-45 191 0 45 45 45 146 0 191-45 45-146 45-191 0z m382 95l95 0 0-95-95 0z m-382 0c50 21 141 21 191 0 50-21 74-45 95-95 21-51 21-141 0-191-21-50-45-75-95-96-50-20-141-20-191 0-50 21-75 46-96 96-20 50-20 140 0 191 21 50 46 74 96 95z m0 191c-42-17-96-96-96-96l-95 0c-45 0-95-50-95-95l0-382c0-45 50-95 95-95l668 0c45 0 95 50 95 95l0 382c0 45-50 95-95 95l-191 0c0 0-54 79-95 96-59 24-132 24-191 0z" horiz-adv-x="1000" />
<glyph glyph-name="education-ecole" unicode="&#xe866;" d="m302 736c-39 0-72-35-72-71 0-37 24-62 55-70l2-16c-18-6-33-18-41-35l-79-105-107-47c-33-14-11-64 22-50l113 50c5 2 8 5 11 8l36 48 4-126c0-6 2-12 4-19l-61-120-20-119-11 0c-48 2-50-70-2-71l72-2 29 170 49 97c3-1 6-1 10-1l60-105 79-73 0-1c-33-35 21-84 53-47l46 52-122 114-57 100c4 9 6 20 6 30l-6 157 71-46 19-105c2-11 10-20 21-22l103-21c8-2 16 0 22 5l56 41-33-165c-2-8 1-16 8-21l-29-42-14-90-1 0c-37-1-34-58 3-54l44 2 20 121 40 61 49 2 63-63 75-32-1-1c-11-36 44-51 53-14l12 46-108 46-29 30c3 5 4 11 3 17l-43 157 41-29 5-57c4-36 58-31 54 5l-6 69c-1 8-5 15-12 20l-102 71c-2 2-5 3-7 4-4 3-9 5-13 5l-5 0-1 11c24 7 41 26 41 54 0 28-25 56-56 56-31 0-57-28-57-56 0-28 17-46 39-53l0-12c-5 0-10-2-14-7-1 0-2 0-3-1l-95-71-73 15-18 99c-1 8-5 14-11 18l-132 85c-7 7-16 13-25 16l-2 19c27 11 47 32 47 68 0 35-32 71-72 71z" horiz-adv-x="1000" />
<glyph glyph-name="education-universite" unicode="&#xe867;" d="m500 636l-416-176 148-63-41-222-1 0c-3-22 12-39 28-43 9-1 18 0 26 5 1 1 2 2 3 3l0-69 46-7c0 0 10 31 41 64 31 32 81 65 166 65 85 0 135-33 166-65 31-33 41-64 41-64l46 7 0 284-253-108-207 88 6 34 201-85 416 176-416 176z m-43-163c1 0 2-1 4-1 2-2 4-5 5-9 0-3 0-7-1-10-2-3-3-5-8-6l-176-48-45-233 0 0c-1-6-3-8-5-9-2-2-5-2-8-1-6 1-11 4-9 15l46 243 1 8 7 2 184 49c2 0 4 0 5 0z" horiz-adv-x="1000" />
</font>
</defs>
</svg>
